<?xml version="1.0" encoding="UTF-8"?>
<svg version="1.1" xmlns="http://www.w3.org/2000/svg" width="512" height="512">
<path d="M0 0 C1.1674311 -0.00551503 1.1674311 -0.00551503 2.35844666 -0.01114148 C4.96903806 -0.02216319 7.57958963 -0.02601966 10.19020081 -0.02983093 C12.06130092 -0.03609693 13.9323998 -0.04274386 15.80349731 -0.04974365 C21.95265335 -0.07077752 28.1018096 -0.08114828 34.25099182 -0.09111023 C36.3705452 -0.09515862 38.49009845 -0.09927557 40.60965157 -0.10346031 C50.57237363 -0.12251379 60.5350883 -0.13674215 70.49782509 -0.14507228 C81.98103506 -0.15483306 93.46405168 -0.18112168 104.94719356 -0.22157317 C113.83233119 -0.25179317 122.71741359 -0.2665469 131.60260159 -0.26985329 C136.90433874 -0.27219787 142.20586938 -0.28108054 147.50755119 -0.30631447 C152.50216573 -0.32970196 157.49643936 -0.33378568 162.49109459 -0.32355309 C164.31590157 -0.32306013 166.14072594 -0.32930885 167.9654808 -0.34310913 C188.43695495 -0.48916086 204.32541187 4.99106628 219.44239807 19.13545227 C223.64792177 23.49704033 226.7377413 28.23680461 229.62989807 33.52217102 C229.95554749 34.11006409 230.2811969 34.69795715 230.61671448 35.30366516 C235.39053438 44.47769088 236.8580521 53.767835 236.75489807 64.02217102 C236.74462585 65.59925842 236.74462585 65.59925842 236.73414612 67.20820618 C236.56947755 75.18507208 235.588621 81.80032607 232.31739807 89.14717102 C231.95517151 90.01986633 231.59294495 90.89256165 231.21974182 91.79170227 C225.36674847 104.70796896 215.3060445 114.6804978 203.00489807 121.45967102 C202.42538391 121.78532043 201.84586975 122.11096985 201.24879456 122.44648743 C189.60740726 128.53719285 177.48677978 128.58278849 164.70411682 128.53535461 C162.84991651 128.53942703 160.99571862 128.54477265 159.14152527 128.55128479 C154.13739622 128.56488453 149.13345409 128.55969024 144.12932205 128.55014753 C138.87389398 128.5425127 133.61848112 128.54960711 128.36305237 128.55430603 C119.54018808 128.55975249 110.71739931 128.55260115 101.89454651 128.5382843 C91.71751827 128.52195996 81.54067038 128.52724925 71.36364651 128.54376352 C62.60064121 128.55741006 53.83768997 128.55928258 45.07467747 128.55144751 C39.85195526 128.54678839 34.62931761 128.54609744 29.40660095 128.55605698 C24.49479675 128.5647706 19.5832234 128.55862495 14.67144394 128.54137421 C12.87686418 128.53743274 11.08226475 128.53850291 9.28769302 128.5451622 C-10.45544437 128.61162867 -27.01413085 124.2925587 -41.67112732 110.4264679 C-53.03297618 99.04705822 -59.82714565 83.58138436 -60.06272888 67.5695343 C-60.04589937 57.36123353 -59.89229982 48.60173841 -55.68260193 39.14717102 C-55.32037537 38.27447571 -54.9581488 37.4017804 -54.58494568 36.50263977 C-47.66256453 21.22646985 -35.04222358 10.17781026 -19.67869568 3.92451477 C-17.02698589 2.93939223 -14.37972631 1.99958472 -11.68260193 1.14717102 C-11.13134612 0.96949597 -10.58009031 0.79182093 -10.01212978 0.60876179 C-6.68257947 -0.05098121 -3.38026317 -0.00085775 0 0 Z M-17.68260193 43.14717102 C-19.10302014 45.98800743 -18.99712465 48.0019438 -18.68260193 51.14717102 C-16.45053762 53.99497721 -15.13267194 54.99714768 -11.68260193 56.14717102 C-9.03620485 56.24723555 -6.4160374 56.2906092 -3.7694397 56.28761292 C-2.95439935 56.29058404 -2.13935899 56.29355516 -1.29962045 56.29661632 C1.44097481 56.30531207 4.18152643 56.3068123 6.9221344 56.30830383 C8.88326104 56.31293138 10.84438679 56.31795595 12.80551147 56.323349 C18.14027696 56.3364809 23.47502985 56.34291946 28.80980897 56.34735966 C32.14147439 56.35028903 35.47313635 56.35439357 38.80480003 56.35886383 C49.22509648 56.37254066 59.64538506 56.38220649 70.06568986 56.38606572 C82.10134718 56.39054749 94.13689099 56.40810016 106.17251378 56.43706632 C115.47110726 56.45866978 124.76966877 56.46876928 134.06828707 56.47010684 C139.62407872 56.4711558 145.17976369 56.47708296 150.73552895 56.49492645 C155.96152393 56.51138407 161.18733179 56.51357384 166.41334343 56.50478745 C168.33138657 56.50401584 170.24943968 56.50837599 172.16745758 56.5182457 C174.78629033 56.53093127 177.40445692 56.52510693 180.02328491 56.5146637 C181.16128429 56.5267483 181.16128429 56.5267483 182.32227355 56.53907704 C187.04739173 56.4950209 190.31175614 55.66952477 194.31739807 53.14717102 C195.73781628 50.30633461 195.63192079 48.29239824 195.31739807 45.14717102 C193.08533376 42.29936483 191.76746809 41.29719436 188.31739807 40.14717102 C185.67100099 40.0471065 183.05083354 40.00373284 180.40423584 40.00672913 C179.58919549 40.003758 178.77415514 40.00078688 177.93441659 39.99772573 C175.19382134 39.98902997 172.45326972 39.98752974 169.71266174 39.98603821 C167.7515351 39.98141067 165.79040936 39.97638609 163.82928467 39.97099304 C158.49451919 39.95786115 153.1597663 39.95142258 147.82498717 39.94698238 C144.49332176 39.94405301 141.16165979 39.93994847 137.82999611 39.93547821 C127.40969966 39.92180138 116.98941109 39.91213556 106.56910628 39.90827632 C94.53344896 39.90379455 82.49790516 39.88624188 70.46228236 39.85727572 C61.16368888 39.83567226 51.86512738 39.82557276 42.56650907 39.8242352 C37.01071743 39.82318624 31.45503246 39.81725908 25.8992672 39.79941559 C20.67327221 39.78295797 15.44746435 39.7807682 10.22145271 39.7895546 C8.30340957 39.7903262 6.38535647 39.78596605 4.46733856 39.77609634 C1.84850581 39.76341078 -0.76966078 39.76923511 -3.38848877 39.77967834 C-4.52648815 39.76759374 -4.52648815 39.76759374 -5.68747741 39.755265 C-10.41259559 39.79932114 -13.67695999 40.62481727 -17.68260193 43.14717102 Z M-17.68260193 75.14717102 C-19.10302014 77.98800743 -18.99712465 80.0019438 -18.68260193 83.14717102 C-16.45053762 85.99497721 -15.13267194 86.99714768 -11.68260193 88.14717102 C-10.0594025 88.24298801 -8.43256465 88.28208106 -6.80654907 88.28761292 C-5.29882179 88.29617813 -5.29882179 88.29617813 -3.76063538 88.30491638 C-2.10782059 88.30659317 -2.10782059 88.30659317 -0.4216156 88.30830383 C0.73961319 88.31326874 1.90084198 88.31823364 3.09725952 88.323349 C6.94798876 88.33798271 10.79867681 88.34477462 14.64942932 88.35029602 C16.64615166 88.35459352 18.642874 88.35889154 20.63959616 88.36327052 C26.20404874 88.37508133 31.76849134 88.38261876 37.33295518 88.38606572 C44.5238023 88.3905449 51.71445918 88.40808728 58.90524846 88.43706632 C64.46714408 88.45870094 70.02898625 88.46877096 75.59092349 88.47010684 C78.91110143 88.47115368 82.23105997 88.47848565 85.55120277 88.49492645 C89.25702476 88.51196726 92.96238295 88.51011116 96.66822815 88.50361633 C97.76403198 88.51283112 98.85983582 88.5220459 99.98884583 88.53153992 C105.4827998 88.50135411 109.62575352 88.36826259 114.31739807 85.14717102 C115.73781628 82.30633461 115.63192079 80.29239824 115.31739807 77.14717102 C113.08533376 74.29936483 111.76746809 73.29719436 108.31739807 72.14717102 C106.69419865 72.05135403 105.06736079 72.01226098 103.44134521 72.00672913 C102.4361937 72.00101898 101.43104218 71.99530884 100.39543152 71.98942566 C98.74261673 71.98774887 98.74261673 71.98774887 97.05641174 71.98603821 C95.89518295 71.9810733 94.73395416 71.9761084 93.53753662 71.97099304 C89.68680738 71.95635933 85.83611933 71.94956742 81.98536682 71.94404602 C79.98864448 71.93974852 77.99192214 71.9354505 75.99519998 71.93107152 C70.4307474 71.91926071 64.8663048 71.91172328 59.30184096 71.90827632 C52.11099384 71.90379714 44.92033696 71.88625476 37.72954768 71.85727572 C32.16765206 71.83564111 26.60580989 71.82557108 21.04387265 71.8242352 C17.72369471 71.82318837 14.40373617 71.81585639 11.08359337 71.79941559 C7.37777138 71.78237478 3.67241319 71.78423088 -0.03343201 71.79072571 C-1.12923584 71.78151093 -2.22503967 71.77229614 -3.35404968 71.76280212 C-8.84800366 71.79298793 -12.99095737 71.92607945 -17.68260193 75.14717102 Z " fill="#3979FF" transform="translate(243.68260192871094,351.8528289794922)"/>
<path d="M0 0 C1.1674311 -0.00551503 1.1674311 -0.00551503 2.35844666 -0.01114148 C4.96903806 -0.02216319 7.57958963 -0.02601966 10.19020081 -0.02983093 C12.06130092 -0.03609693 13.9323998 -0.04274386 15.80349731 -0.04974365 C21.95265335 -0.07077752 28.1018096 -0.08114828 34.25099182 -0.09111023 C36.3705452 -0.09515862 38.49009845 -0.09927557 40.60965157 -0.10346031 C50.57237363 -0.12251379 60.5350883 -0.13674215 70.49782509 -0.14507228 C81.98103506 -0.15483306 93.46405168 -0.18112168 104.94719356 -0.22157317 C113.83233119 -0.25179317 122.71741359 -0.2665469 131.60260159 -0.26985329 C136.90433874 -0.27219787 142.20586938 -0.28108054 147.50755119 -0.30631447 C152.50216573 -0.32970196 157.49643936 -0.33378568 162.49109459 -0.32355309 C164.31590157 -0.32306013 166.14072594 -0.32930885 167.9654808 -0.34310913 C188.43695495 -0.48916086 204.32541187 4.99106628 219.44239807 19.13545227 C223.64792177 23.49704033 226.7377413 28.23680461 229.62989807 33.52217102 C229.95554749 34.11006409 230.2811969 34.69795715 230.61671448 35.30366516 C235.39053438 44.47769088 236.8580521 53.767835 236.75489807 64.02217102 C236.74462585 65.59925842 236.74462585 65.59925842 236.73414612 67.20820618 C236.56947755 75.18507208 235.588621 81.80032607 232.31739807 89.14717102 C231.95517151 90.01986633 231.59294495 90.89256165 231.21974182 91.79170227 C225.36674847 104.70796896 215.3060445 114.6804978 203.00489807 121.45967102 C202.42538391 121.78532043 201.84586975 122.11096985 201.24879456 122.44648743 C189.60740726 128.53719285 177.48677978 128.58278849 164.70411682 128.53535461 C162.84991651 128.53942703 160.99571862 128.54477265 159.14152527 128.55128479 C154.13739622 128.56488453 149.13345409 128.55969024 144.12932205 128.55014753 C138.87389398 128.5425127 133.61848112 128.54960711 128.36305237 128.55430603 C119.54018808 128.55975249 110.71739931 128.55260115 101.89454651 128.5382843 C91.71751827 128.52195996 81.54067038 128.52724925 71.36364651 128.54376352 C62.60064121 128.55741006 53.83768997 128.55928258 45.07467747 128.55144751 C39.85195526 128.54678839 34.62931761 128.54609744 29.40660095 128.55605698 C24.49479675 128.5647706 19.5832234 128.55862495 14.67144394 128.54137421 C12.87686418 128.53743274 11.08226475 128.53850291 9.28769302 128.5451622 C-10.45544437 128.61162867 -27.01413085 124.2925587 -41.67112732 110.4264679 C-53.03297618 99.04705822 -59.82714565 83.58138436 -60.06272888 67.5695343 C-60.04589937 57.36123353 -59.89229982 48.60173841 -55.68260193 39.14717102 C-55.32037537 38.27447571 -54.9581488 37.4017804 -54.58494568 36.50263977 C-47.66256453 21.22646985 -35.04222358 10.17781026 -19.67869568 3.92451477 C-17.02698589 2.93939223 -14.37972631 1.99958472 -11.68260193 1.14717102 C-11.13134612 0.96949597 -10.58009031 0.79182093 -10.01212978 0.60876179 C-6.68257947 -0.05098121 -3.38026317 -0.00085775 0 0 Z M-17.68260193 43.14717102 C-19.10302014 45.98800743 -18.99712465 48.0019438 -18.68260193 51.14717102 C-16.45053762 53.99497721 -15.13267194 54.99714768 -11.68260193 56.14717102 C-9.03620485 56.24723555 -6.4160374 56.2906092 -3.7694397 56.28761292 C-2.95439935 56.29058404 -2.13935899 56.29355516 -1.29962045 56.29661632 C1.44097481 56.30531207 4.18152643 56.3068123 6.9221344 56.30830383 C8.88326104 56.31293138 10.84438679 56.31795595 12.80551147 56.323349 C18.14027696 56.3364809 23.47502985 56.34291946 28.80980897 56.34735966 C32.14147439 56.35028903 35.47313635 56.35439357 38.80480003 56.35886383 C49.22509648 56.37254066 59.64538506 56.38220649 70.06568986 56.38606572 C82.10134718 56.39054749 94.13689099 56.40810016 106.17251378 56.43706632 C115.47110726 56.45866978 124.76966877 56.46876928 134.06828707 56.47010684 C139.62407872 56.4711558 145.17976369 56.47708296 150.73552895 56.49492645 C155.96152393 56.51138407 161.18733179 56.51357384 166.41334343 56.50478745 C168.33138657 56.50401584 170.24943968 56.50837599 172.16745758 56.5182457 C174.78629033 56.53093127 177.40445692 56.52510693 180.02328491 56.5146637 C181.16128429 56.5267483 181.16128429 56.5267483 182.32227355 56.53907704 C187.04739173 56.4950209 190.31175614 55.66952477 194.31739807 53.14717102 C195.73781628 50.30633461 195.63192079 48.29239824 195.31739807 45.14717102 C193.08533376 42.29936483 191.76746809 41.29719436 188.31739807 40.14717102 C185.67100099 40.0471065 183.05083354 40.00373284 180.40423584 40.00672913 C179.58919549 40.003758 178.77415514 40.00078688 177.93441659 39.99772573 C175.19382134 39.98902997 172.45326972 39.98752974 169.71266174 39.98603821 C167.7515351 39.98141067 165.79040936 39.97638609 163.82928467 39.97099304 C158.49451919 39.95786115 153.1597663 39.95142258 147.82498717 39.94698238 C144.49332176 39.94405301 141.16165979 39.93994847 137.82999611 39.93547821 C127.40969966 39.92180138 116.98941109 39.91213556 106.56910628 39.90827632 C94.53344896 39.90379455 82.49790516 39.88624188 70.46228236 39.85727572 C61.16368888 39.83567226 51.86512738 39.82557276 42.56650907 39.8242352 C37.01071743 39.82318624 31.45503246 39.81725908 25.8992672 39.79941559 C20.67327221 39.78295797 15.44746435 39.7807682 10.22145271 39.7895546 C8.30340957 39.7903262 6.38535647 39.78596605 4.46733856 39.77609634 C1.84850581 39.76341078 -0.76966078 39.76923511 -3.38848877 39.77967834 C-4.52648815 39.76759374 -4.52648815 39.76759374 -5.68747741 39.755265 C-10.41259559 39.79932114 -13.67695999 40.62481727 -17.68260193 43.14717102 Z M-17.68260193 75.14717102 C-19.10302014 77.98800743 -18.99712465 80.0019438 -18.68260193 83.14717102 C-16.45053762 85.99497721 -15.13267194 86.99714768 -11.68260193 88.14717102 C-10.0594025 88.24298801 -8.43256465 88.28208106 -6.80654907 88.28761292 C-5.29882179 88.29617813 -5.29882179 88.29617813 -3.76063538 88.30491638 C-2.10782059 88.30659317 -2.10782059 88.30659317 -0.4216156 88.30830383 C0.73961319 88.31326874 1.90084198 88.31823364 3.09725952 88.323349 C6.94798876 88.33798271 10.79867681 88.34477462 14.64942932 88.35029602 C16.64615166 88.35459352 18.642874 88.35889154 20.63959616 88.36327052 C26.20404874 88.37508133 31.76849134 88.38261876 37.33295518 88.38606572 C44.5238023 88.3905449 51.71445918 88.40808728 58.90524846 88.43706632 C64.46714408 88.45870094 70.02898625 88.46877096 75.59092349 88.47010684 C78.91110143 88.47115368 82.23105997 88.47848565 85.55120277 88.49492645 C89.25702476 88.51196726 92.96238295 88.51011116 96.66822815 88.50361633 C97.76403198 88.51283112 98.85983582 88.5220459 99.98884583 88.53153992 C105.4827998 88.50135411 109.62575352 88.36826259 114.31739807 85.14717102 C115.73781628 82.30633461 115.63192079 80.29239824 115.31739807 77.14717102 C113.08533376 74.29936483 111.76746809 73.29719436 108.31739807 72.14717102 C106.69419865 72.05135403 105.06736079 72.01226098 103.44134521 72.00672913 C102.4361937 72.00101898 101.43104218 71.99530884 100.39543152 71.98942566 C98.74261673 71.98774887 98.74261673 71.98774887 97.05641174 71.98603821 C95.89518295 71.9810733 94.73395416 71.9761084 93.53753662 71.97099304 C89.68680738 71.95635933 85.83611933 71.94956742 81.98536682 71.94404602 C79.98864448 71.93974852 77.99192214 71.9354505 75.99519998 71.93107152 C70.4307474 71.91926071 64.8663048 71.91172328 59.30184096 71.90827632 C52.11099384 71.90379714 44.92033696 71.88625476 37.72954768 71.85727572 C32.16765206 71.83564111 26.60580989 71.82557108 21.04387265 71.8242352 C17.72369471 71.82318837 14.40373617 71.81585639 11.08359337 71.79941559 C7.37777138 71.78237478 3.67241319 71.78423088 -0.03343201 71.79072571 C-1.12923584 71.78151093 -2.22503967 71.77229614 -3.35404968 71.76280212 C-8.84800366 71.79298793 -12.99095737 71.92607945 -17.68260193 75.14717102 Z " fill="#3979FF" transform="translate(243.68260192871094,191.8528289794922)"/>
<path d="M0 0 C1.1674311 -0.00551503 1.1674311 -0.00551503 2.35844666 -0.01114148 C4.96903806 -0.02216319 7.57958963 -0.02601966 10.19020081 -0.02983093 C12.06130092 -0.03609693 13.9323998 -0.04274386 15.80349731 -0.04974365 C21.95265335 -0.07077752 28.1018096 -0.08114828 34.25099182 -0.09111023 C36.3705452 -0.09515862 38.49009845 -0.09927557 40.60965157 -0.10346031 C50.57237363 -0.12251379 60.5350883 -0.13674215 70.49782509 -0.14507228 C81.98103506 -0.15483306 93.46405168 -0.18112168 104.94719356 -0.22157317 C113.83233119 -0.25179317 122.71741359 -0.2665469 131.60260159 -0.26985329 C136.90433874 -0.27219787 142.20586938 -0.28108054 147.50755119 -0.30631447 C152.50216573 -0.32970196 157.49643936 -0.33378568 162.49109459 -0.32355309 C164.31590157 -0.32306013 166.14072594 -0.32930885 167.9654808 -0.34310913 C188.43695495 -0.48916086 204.32541187 4.99106628 219.44239807 19.13545227 C223.64792177 23.49704033 226.7377413 28.23680461 229.62989807 33.52217102 C229.95554749 34.11006409 230.2811969 34.69795715 230.61671448 35.30366516 C235.39053438 44.47769088 236.8580521 53.767835 236.75489807 64.02217102 C236.74462585 65.59925842 236.74462585 65.59925842 236.73414612 67.20820618 C236.56947755 75.18507208 235.588621 81.80032607 232.31739807 89.14717102 C231.95517151 90.01986633 231.59294495 90.89256165 231.21974182 91.79170227 C225.36674847 104.70796896 215.3060445 114.6804978 203.00489807 121.45967102 C202.42538391 121.78532043 201.84586975 122.11096985 201.24879456 122.44648743 C189.60740726 128.53719285 177.48677978 128.58278849 164.70411682 128.53535461 C162.84991651 128.53942703 160.99571862 128.54477265 159.14152527 128.55128479 C154.13739622 128.56488453 149.13345409 128.55969024 144.12932205 128.55014753 C138.87389398 128.5425127 133.61848112 128.54960711 128.36305237 128.55430603 C119.54018808 128.55975249 110.71739931 128.55260115 101.89454651 128.5382843 C91.71751827 128.52195996 81.54067038 128.52724925 71.36364651 128.54376352 C62.60064121 128.55741006 53.83768997 128.55928258 45.07467747 128.55144751 C39.85195526 128.54678839 34.62931761 128.54609744 29.40660095 128.55605698 C24.49479675 128.5647706 19.5832234 128.55862495 14.67144394 128.54137421 C12.87686418 128.53743274 11.08226475 128.53850291 9.28769302 128.5451622 C-10.45544437 128.61162867 -27.01413085 124.2925587 -41.67112732 110.4264679 C-53.03297618 99.04705822 -59.82714565 83.58138436 -60.06272888 67.5695343 C-60.04589937 57.36123353 -59.89229982 48.60173841 -55.68260193 39.14717102 C-55.32037537 38.27447571 -54.9581488 37.4017804 -54.58494568 36.50263977 C-47.66256453 21.22646985 -35.04222358 10.17781026 -19.67869568 3.92451477 C-17.02698589 2.93939223 -14.37972631 1.99958472 -11.68260193 1.14717102 C-11.13134612 0.96949597 -10.58009031 0.79182093 -10.01212978 0.60876179 C-6.68257947 -0.05098121 -3.38026317 -0.00085775 0 0 Z M-17.68260193 43.14717102 C-19.10302014 45.98800743 -18.99712465 48.0019438 -18.68260193 51.14717102 C-16.45053762 53.99497721 -15.13267194 54.99714768 -11.68260193 56.14717102 C-9.03620485 56.24723555 -6.4160374 56.2906092 -3.7694397 56.28761292 C-2.95439935 56.29058404 -2.13935899 56.29355516 -1.29962045 56.29661632 C1.44097481 56.30531207 4.18152643 56.3068123 6.9221344 56.30830383 C8.88326104 56.31293138 10.84438679 56.31795595 12.80551147 56.323349 C18.14027696 56.3364809 23.47502985 56.34291946 28.80980897 56.34735966 C32.14147439 56.35028903 35.47313635 56.35439357 38.80480003 56.35886383 C49.22509648 56.37254066 59.64538506 56.38220649 70.06568986 56.38606572 C82.10134718 56.39054749 94.13689099 56.40810016 106.17251378 56.43706632 C115.47110726 56.45866978 124.76966877 56.46876928 134.06828707 56.47010684 C139.62407872 56.4711558 145.17976369 56.47708296 150.73552895 56.49492645 C155.96152393 56.51138407 161.18733179 56.51357384 166.41334343 56.50478745 C168.33138657 56.50401584 170.24943968 56.50837599 172.16745758 56.5182457 C174.78629033 56.53093127 177.40445692 56.52510693 180.02328491 56.5146637 C181.16128429 56.5267483 181.16128429 56.5267483 182.32227355 56.53907704 C187.04739173 56.4950209 190.31175614 55.66952477 194.31739807 53.14717102 C195.73781628 50.30633461 195.63192079 48.29239824 195.31739807 45.14717102 C193.08533376 42.29936483 191.76746809 41.29719436 188.31739807 40.14717102 C185.67100099 40.0471065 183.05083354 40.00373284 180.40423584 40.00672913 C179.58919549 40.003758 178.77415514 40.00078688 177.93441659 39.99772573 C175.19382134 39.98902997 172.45326972 39.98752974 169.71266174 39.98603821 C167.7515351 39.98141067 165.79040936 39.97638609 163.82928467 39.97099304 C158.49451919 39.95786115 153.1597663 39.95142258 147.82498717 39.94698238 C144.49332176 39.94405301 141.16165979 39.93994847 137.82999611 39.93547821 C127.40969966 39.92180138 116.98941109 39.91213556 106.56910628 39.90827632 C94.53344896 39.90379455 82.49790516 39.88624188 70.46228236 39.85727572 C61.16368888 39.83567226 51.86512738 39.82557276 42.56650907 39.8242352 C37.01071743 39.82318624 31.45503246 39.81725908 25.8992672 39.79941559 C20.67327221 39.78295797 15.44746435 39.7807682 10.22145271 39.7895546 C8.30340957 39.7903262 6.38535647 39.78596605 4.46733856 39.77609634 C1.84850581 39.76341078 -0.76966078 39.76923511 -3.38848877 39.77967834 C-4.52648815 39.76759374 -4.52648815 39.76759374 -5.68747741 39.755265 C-10.41259559 39.79932114 -13.67695999 40.62481727 -17.68260193 43.14717102 Z M-17.68260193 75.14717102 C-19.10302014 77.98800743 -18.99712465 80.0019438 -18.68260193 83.14717102 C-16.45053762 85.99497721 -15.13267194 86.99714768 -11.68260193 88.14717102 C-10.0594025 88.24298801 -8.43256465 88.28208106 -6.80654907 88.28761292 C-5.29882179 88.29617813 -5.29882179 88.29617813 -3.76063538 88.30491638 C-2.10782059 88.30659317 -2.10782059 88.30659317 -0.4216156 88.30830383 C0.73961319 88.31326874 1.90084198 88.31823364 3.09725952 88.323349 C6.94798876 88.33798271 10.79867681 88.34477462 14.64942932 88.35029602 C16.64615166 88.35459352 18.642874 88.35889154 20.63959616 88.36327052 C26.20404874 88.37508133 31.76849134 88.38261876 37.33295518 88.38606572 C44.5238023 88.3905449 51.71445918 88.40808728 58.90524846 88.43706632 C64.46714408 88.45870094 70.02898625 88.46877096 75.59092349 88.47010684 C78.91110143 88.47115368 82.23105997 88.47848565 85.55120277 88.49492645 C89.25702476 88.51196726 92.96238295 88.51011116 96.66822815 88.50361633 C97.76403198 88.51283112 98.85983582 88.5220459 99.98884583 88.53153992 C105.4827998 88.50135411 109.62575352 88.36826259 114.31739807 85.14717102 C115.73781628 82.30633461 115.63192079 80.29239824 115.31739807 77.14717102 C113.08533376 74.29936483 111.76746809 73.29719436 108.31739807 72.14717102 C106.69419865 72.05135403 105.06736079 72.01226098 103.44134521 72.00672913 C102.4361937 72.00101898 101.43104218 71.99530884 100.39543152 71.98942566 C98.74261673 71.98774887 98.74261673 71.98774887 97.05641174 71.98603821 C95.89518295 71.9810733 94.73395416 71.9761084 93.53753662 71.97099304 C89.68680738 71.95635933 85.83611933 71.94956742 81.98536682 71.94404602 C79.98864448 71.93974852 77.99192214 71.9354505 75.99519998 71.93107152 C70.4307474 71.91926071 64.8663048 71.91172328 59.30184096 71.90827632 C52.11099384 71.90379714 44.92033696 71.88625476 37.72954768 71.85727572 C32.16765206 71.83564111 26.60580989 71.82557108 21.04387265 71.8242352 C17.72369471 71.82318837 14.40373617 71.81585639 11.08359337 71.79941559 C7.37777138 71.78237478 3.67241319 71.78423088 -0.03343201 71.79072571 C-1.12923584 71.78151093 -2.22503967 71.77229614 -3.35404968 71.76280212 C-8.84800366 71.79298793 -12.99095737 71.92607945 -17.68260193 75.14717102 Z " fill="#3979FF" transform="translate(243.68260192871094,31.852828979492188)"/>
<path d="M0 0 C13.64350011 10.04313203 23.36068198 25.17042745 26 42 C27.59331318 62.15284804 24.41091923 80.23208318 11.06835938 95.96655273 C0.76464822 107.40884583 -14.04432536 115.97570571 -29.59082031 117.20483398 C-49.8114446 117.92910534 -67.10251763 114.55283359 -82.5 100.6875 C-94.03437764 89.7755285 -101.67826421 74.47346006 -102.3359375 58.546875 C-102.50387627 47.81164134 -102.50219749 37.95575219 -98 28 C-97.2884375 26.39318359 -97.2884375 26.39318359 -96.5625 24.75390625 C-88.53216014 8.3650636 -75.16958173 -2.82172733 -58 -9 C-38.17716973 -14.75437763 -17.04329508 -11.34845212 0 0 Z M-23.3125 34.5625 C-23.99441406 35.18253906 -24.67632812 35.80257812 -25.37890625 36.44140625 C-27.53110237 38.54228323 -29.62878863 40.67422016 -31.71484375 42.83984375 C-32.70907349 43.86259399 -32.70907349 43.86259399 -33.72338867 44.90600586 C-35.06765926 46.29497211 -36.4000766 47.69551509 -37.7199707 49.10766602 C-38.34347412 49.75276123 -38.96697754 50.39785645 -39.609375 51.0625 C-40.16592773 51.65160156 -40.72248047 52.24070312 -41.29589844 52.84765625 C-43 54 -43 54 -45.09130859 53.78540039 C-47.55820014 52.77030828 -48.98801545 51.31311717 -50.875 49.4375 C-53.55489927 47.01662445 -54.64750173 46.07456694 -58.25 45.3125 C-61.70637112 46.17659278 -62.98668966 47.0574695 -65 50 C-65.91955603 52.82491198 -65.91955603 52.82491198 -65 56 C-62.97571823 58.97355676 -60.51954663 61.44353694 -58 64 C-57.25492188 64.81726563 -56.50984375 65.63453125 -55.7421875 66.4765625 C-54.60136719 67.69472656 -54.60136719 67.69472656 -53.4375 68.9375 C-52.73496094 69.68902344 -52.03242187 70.44054687 -51.30859375 71.21484375 C-48.43117233 73.4398549 -46.62983282 73.94827958 -43 74 C-31.63744593 68.1182073 -18.01682664 53.52523996 -11 43 C-10.41657647 39.54230809 -10.41657647 39.54230809 -11 36 C-13.12685929 33.4482714 -13.12685929 33.4482714 -16 32 C-20.34594144 31.97338927 -20.34594144 31.97338927 -23.3125 34.5625 Z " fill="#0CB1FF" transform="translate(134,363)"/>
<path d="M0 0 C13.64350011 10.04313203 23.36068198 25.17042745 26 42 C27.59331318 62.15284804 24.41091923 80.23208318 11.06835938 95.96655273 C0.76464822 107.40884583 -14.04432536 115.97570571 -29.59082031 117.20483398 C-49.8114446 117.92910534 -67.10251763 114.55283359 -82.5 100.6875 C-94.03437764 89.7755285 -101.67826421 74.47346006 -102.3359375 58.546875 C-102.50387627 47.81164134 -102.50219749 37.95575219 -98 28 C-97.2884375 26.39318359 -97.2884375 26.39318359 -96.5625 24.75390625 C-88.53216014 8.3650636 -75.16958173 -2.82172733 -58 -9 C-38.17716973 -14.75437763 -17.04329508 -11.34845212 0 0 Z M-23.3125 34.5625 C-23.99441406 35.18253906 -24.67632812 35.80257812 -25.37890625 36.44140625 C-27.53110237 38.54228323 -29.62878863 40.67422016 -31.71484375 42.83984375 C-32.70907349 43.86259399 -32.70907349 43.86259399 -33.72338867 44.90600586 C-35.06765926 46.29497211 -36.4000766 47.69551509 -37.7199707 49.10766602 C-38.34347412 49.75276123 -38.96697754 50.39785645 -39.609375 51.0625 C-40.16592773 51.65160156 -40.72248047 52.24070312 -41.29589844 52.84765625 C-43 54 -43 54 -45.09130859 53.78540039 C-47.55820014 52.77030828 -48.98801545 51.31311717 -50.875 49.4375 C-53.55489927 47.01662445 -54.64750173 46.07456694 -58.25 45.3125 C-61.70637112 46.17659278 -62.98668966 47.0574695 -65 50 C-65.91955603 52.82491198 -65.91955603 52.82491198 -65 56 C-62.97571823 58.97355676 -60.51954663 61.44353694 -58 64 C-57.25492188 64.81726563 -56.50984375 65.63453125 -55.7421875 66.4765625 C-54.60136719 67.69472656 -54.60136719 67.69472656 -53.4375 68.9375 C-52.73496094 69.68902344 -52.03242187 70.44054687 -51.30859375 71.21484375 C-48.43117233 73.4398549 -46.62983282 73.94827958 -43 74 C-31.63744593 68.1182073 -18.01682664 53.52523996 -11 43 C-10.41657647 39.54230809 -10.41657647 39.54230809 -11 36 C-13.12685929 33.4482714 -13.12685929 33.4482714 -16 32 C-20.34594144 31.97338927 -20.34594144 31.97338927 -23.3125 34.5625 Z " fill="#0CB1FF" transform="translate(134,203)"/>
<path d="M0 0 C13.64350011 10.04313203 23.36068198 25.17042745 26 42 C27.59331318 62.15284804 24.41091923 80.23208318 11.06835938 95.96655273 C0.76464822 107.40884583 -14.04432536 115.97570571 -29.59082031 117.20483398 C-49.8114446 117.92910534 -67.10251763 114.55283359 -82.5 100.6875 C-94.03437764 89.7755285 -101.67826421 74.47346006 -102.3359375 58.546875 C-102.50387627 47.81164134 -102.50219749 37.95575219 -98 28 C-97.2884375 26.39318359 -97.2884375 26.39318359 -96.5625 24.75390625 C-88.53216014 8.3650636 -75.16958173 -2.82172733 -58 -9 C-38.17716973 -14.75437763 -17.04329508 -11.34845212 0 0 Z M-23.3125 34.5625 C-23.99441406 35.18253906 -24.67632812 35.80257812 -25.37890625 36.44140625 C-27.53110237 38.54228323 -29.62878863 40.67422016 -31.71484375 42.83984375 C-32.70907349 43.86259399 -32.70907349 43.86259399 -33.72338867 44.90600586 C-35.06765926 46.29497211 -36.4000766 47.69551509 -37.7199707 49.10766602 C-38.34347412 49.75276123 -38.96697754 50.39785645 -39.609375 51.0625 C-40.16592773 51.65160156 -40.72248047 52.24070312 -41.29589844 52.84765625 C-43 54 -43 54 -45.09130859 53.78540039 C-47.55820014 52.77030828 -48.98801545 51.31311717 -50.875 49.4375 C-53.55489927 47.01662445 -54.64750173 46.07456694 -58.25 45.3125 C-61.70637112 46.17659278 -62.98668966 47.0574695 -65 50 C-65.91955603 52.82491198 -65.91955603 52.82491198 -65 56 C-62.97571823 58.97355676 -60.51954663 61.44353694 -58 64 C-57.25492188 64.81726563 -56.50984375 65.63453125 -55.7421875 66.4765625 C-54.60136719 67.69472656 -54.60136719 67.69472656 -53.4375 68.9375 C-52.73496094 69.68902344 -52.03242187 70.44054687 -51.30859375 71.21484375 C-48.43117233 73.4398549 -46.62983282 73.94827958 -43 74 C-31.63744593 68.1182073 -18.01682664 53.52523996 -11 43 C-10.41657647 39.54230809 -10.41657647 39.54230809 -11 36 C-13.12685929 33.4482714 -13.12685929 33.4482714 -16 32 C-20.34594144 31.97338927 -20.34594144 31.97338927 -23.3125 34.5625 Z " fill="#0CB1FF" transform="translate(134,43)"/>
</svg>
